<mxfile host="app.diagrams.net" agent="Mozilla/5.0 (Macintosh; Intel Mac OS X 10_15_7) AppleWebKit/537.36 (KHTML, like Gecko) Chrome/134.0.0.0 Safari/537.36" version="26.1.0">
  <diagram name="Page-1" id="MD35YzrzWLeS2XZzhqwU">
    <mxGraphModel dx="1236" dy="755" grid="1" gridSize="10" guides="1" tooltips="1" connect="1" arrows="1" fold="1" page="1" pageScale="1" pageWidth="1169" pageHeight="827" math="0" shadow="0">
      <root>
        <mxCell id="0" />
        <mxCell id="1" parent="0" />
        <mxCell id="svk5F5cs-5M3oYEvu1DR-1" value="" style="shape=cube;whiteSpace=wrap;html=1;boundedLbl=1;backgroundOutline=1;darkOpacity=0.05;darkOpacity2=0.1;size=10;" vertex="1" parent="1">
          <mxGeometry x="530" y="170" width="120" height="80" as="geometry" />
        </mxCell>
        <mxCell id="svk5F5cs-5M3oYEvu1DR-2" value="1.0 Checkout Process" style="text;html=1;align=center;verticalAlign=middle;whiteSpace=wrap;rounded=0;" vertex="1" parent="1">
          <mxGeometry x="560" y="200" width="60" height="30" as="geometry" />
        </mxCell>
        <mxCell id="svk5F5cs-5M3oYEvu1DR-3" value="" style="shape=cube;whiteSpace=wrap;html=1;boundedLbl=1;backgroundOutline=1;darkOpacity=0.05;darkOpacity2=0.1;size=10;" vertex="1" parent="1">
          <mxGeometry x="170" y="350" width="120" height="80" as="geometry" />
        </mxCell>
        <mxCell id="svk5F5cs-5M3oYEvu1DR-4" value="1.1 Process Items to Purchase" style="text;html=1;align=center;verticalAlign=middle;whiteSpace=wrap;rounded=0;" vertex="1" parent="1">
          <mxGeometry x="200" y="380" width="60" height="30" as="geometry" />
        </mxCell>
        <mxCell id="svk5F5cs-5M3oYEvu1DR-7" value="" style="shape=cube;whiteSpace=wrap;html=1;boundedLbl=1;backgroundOutline=1;darkOpacity=0.05;darkOpacity2=0.1;size=10;" vertex="1" parent="1">
          <mxGeometry x="390" y="350" width="120" height="80" as="geometry" />
        </mxCell>
        <mxCell id="svk5F5cs-5M3oYEvu1DR-8" value="1.2 Update Inventory on Hand" style="text;html=1;align=center;verticalAlign=middle;whiteSpace=wrap;rounded=0;" vertex="1" parent="1">
          <mxGeometry x="420" y="380" width="60" height="30" as="geometry" />
        </mxCell>
        <mxCell id="svk5F5cs-5M3oYEvu1DR-9" value="" style="shape=cube;whiteSpace=wrap;html=1;boundedLbl=1;backgroundOutline=1;darkOpacity=0.05;darkOpacity2=0.1;size=10;" vertex="1" parent="1">
          <mxGeometry x="890" y="350" width="120" height="80" as="geometry" />
        </mxCell>
        <mxCell id="svk5F5cs-5M3oYEvu1DR-10" value="1.4 Record Sales Transaction" style="text;html=1;align=center;verticalAlign=middle;whiteSpace=wrap;rounded=0;" vertex="1" parent="1">
          <mxGeometry x="920" y="380" width="60" height="30" as="geometry" />
        </mxCell>
        <mxCell id="svk5F5cs-5M3oYEvu1DR-15" value="" style="shape=cube;whiteSpace=wrap;html=1;boundedLbl=1;backgroundOutline=1;darkOpacity=0.05;darkOpacity2=0.1;size=10;" vertex="1" parent="1">
          <mxGeometry x="170" y="540" width="120" height="80" as="geometry" />
        </mxCell>
        <mxCell id="svk5F5cs-5M3oYEvu1DR-16" value="1.1.1 Validate Item Details" style="text;html=1;align=center;verticalAlign=middle;whiteSpace=wrap;rounded=0;" vertex="1" parent="1">
          <mxGeometry x="200" y="570" width="60" height="30" as="geometry" />
        </mxCell>
        <mxCell id="svk5F5cs-5M3oYEvu1DR-17" value="" style="endArrow=none;html=1;rounded=0;entryX=0;entryY=0;entryDx=65;entryDy=80;entryPerimeter=0;" edge="1" parent="1" target="svk5F5cs-5M3oYEvu1DR-1">
          <mxGeometry width="50" height="50" relative="1" as="geometry">
            <mxPoint x="595" y="300" as="sourcePoint" />
            <mxPoint x="560" y="490" as="targetPoint" />
          </mxGeometry>
        </mxCell>
        <mxCell id="svk5F5cs-5M3oYEvu1DR-18" value="" style="endArrow=none;html=1;rounded=0;" edge="1" parent="1">
          <mxGeometry width="50" height="50" relative="1" as="geometry">
            <mxPoint x="230" y="300" as="sourcePoint" />
            <mxPoint x="940" y="300" as="targetPoint" />
          </mxGeometry>
        </mxCell>
        <mxCell id="svk5F5cs-5M3oYEvu1DR-21" value="" style="endArrow=classic;html=1;rounded=0;entryX=0;entryY=0;entryDx=55;entryDy=0;entryPerimeter=0;" edge="1" parent="1">
          <mxGeometry width="50" height="50" relative="1" as="geometry">
            <mxPoint x="229.62" y="300" as="sourcePoint" />
            <mxPoint x="229.62" y="350" as="targetPoint" />
          </mxGeometry>
        </mxCell>
        <mxCell id="svk5F5cs-5M3oYEvu1DR-23" value="" style="endArrow=classic;html=1;rounded=0;entryX=0;entryY=0;entryDx=55;entryDy=0;entryPerimeter=0;" edge="1" parent="1">
          <mxGeometry width="50" height="50" relative="1" as="geometry">
            <mxPoint x="450" y="320" as="sourcePoint" />
            <mxPoint x="449.6700000000001" y="350" as="targetPoint" />
          </mxGeometry>
        </mxCell>
        <mxCell id="svk5F5cs-5M3oYEvu1DR-24" value="" style="endArrow=classic;html=1;rounded=0;entryX=0;entryY=0;entryDx=55;entryDy=0;entryPerimeter=0;" edge="1" parent="1">
          <mxGeometry width="50" height="50" relative="1" as="geometry">
            <mxPoint x="940" y="300" as="sourcePoint" />
            <mxPoint x="940" y="350" as="targetPoint" />
          </mxGeometry>
        </mxCell>
        <mxCell id="svk5F5cs-5M3oYEvu1DR-25" value="" style="rhombus;whiteSpace=wrap;html=1;" vertex="1" parent="1">
          <mxGeometry x="441.42999999999995" y="300" width="17.14" height="20" as="geometry" />
        </mxCell>
        <mxCell id="svk5F5cs-5M3oYEvu1DR-27" value="" style="endArrow=classic;html=1;rounded=0;" edge="1" parent="1">
          <mxGeometry width="50" height="50" relative="1" as="geometry">
            <mxPoint x="229.2" y="430" as="sourcePoint" />
            <mxPoint x="229.62" y="540" as="targetPoint" />
          </mxGeometry>
        </mxCell>
        <mxCell id="svk5F5cs-5M3oYEvu1DR-39" value="" style="endArrow=classic;html=1;rounded=0;exitX=0.5;exitY=1;exitDx=0;exitDy=0;startArrow=oval;startFill=0;" edge="1" parent="1">
          <mxGeometry width="50" height="50" relative="1" as="geometry">
            <mxPoint x="920" y="316" as="sourcePoint" />
            <mxPoint x="920" y="341" as="targetPoint" />
          </mxGeometry>
        </mxCell>
        <mxCell id="svk5F5cs-5M3oYEvu1DR-41" value="" style="endArrow=classic;html=1;rounded=0;exitX=0.5;exitY=1;exitDx=0;exitDy=0;startArrow=oval;startFill=0;" edge="1" parent="1">
          <mxGeometry width="50" height="50" relative="1" as="geometry">
            <mxPoint x="957" y="316" as="sourcePoint" />
            <mxPoint x="957" y="341" as="targetPoint" />
          </mxGeometry>
        </mxCell>
        <mxCell id="svk5F5cs-5M3oYEvu1DR-43" value="Transaction&lt;div&gt;Details&lt;/div&gt;" style="text;html=1;align=center;verticalAlign=middle;whiteSpace=wrap;rounded=0;" vertex="1" parent="1">
          <mxGeometry x="850" y="310" width="60" height="30" as="geometry" />
        </mxCell>
        <mxCell id="svk5F5cs-5M3oYEvu1DR-44" value="Payment&lt;div&gt;Details&lt;/div&gt;" style="text;html=1;align=center;verticalAlign=middle;whiteSpace=wrap;rounded=0;" vertex="1" parent="1">
          <mxGeometry x="963" y="310" width="60" height="30" as="geometry" />
        </mxCell>
        <mxCell id="svk5F5cs-5M3oYEvu1DR-45" value="" style="endArrow=classic;html=1;rounded=0;exitX=0.5;exitY=1;exitDx=0;exitDy=0;startArrow=oval;startFill=0;" edge="1" parent="1">
          <mxGeometry width="50" height="50" relative="1" as="geometry">
            <mxPoint x="420" y="316" as="sourcePoint" />
            <mxPoint x="420" y="341" as="targetPoint" />
          </mxGeometry>
        </mxCell>
        <mxCell id="svk5F5cs-5M3oYEvu1DR-47" value="Items Purchased" style="text;html=1;align=center;verticalAlign=middle;whiteSpace=wrap;rounded=0;" vertex="1" parent="1">
          <mxGeometry x="350" y="310" width="60" height="30" as="geometry" />
        </mxCell>
        <mxCell id="svk5F5cs-5M3oYEvu1DR-58" value="" style="endArrow=classic;html=1;rounded=0;startArrow=oval;startFill=0;" edge="1" parent="1">
          <mxGeometry width="50" height="50" relative="1" as="geometry">
            <mxPoint x="250" y="337" as="sourcePoint" />
            <mxPoint x="250" y="317" as="targetPoint" />
          </mxGeometry>
        </mxCell>
        <mxCell id="svk5F5cs-5M3oYEvu1DR-59" value="Amount Due" style="text;html=1;align=center;verticalAlign=middle;whiteSpace=wrap;rounded=0;" vertex="1" parent="1">
          <mxGeometry x="254" y="314" width="60" height="30" as="geometry" />
        </mxCell>
        <mxCell id="svk5F5cs-5M3oYEvu1DR-62" value="" style="endArrow=classic;html=1;rounded=0;exitX=0.5;exitY=1;exitDx=0;exitDy=0;startArrow=oval;startFill=0;" edge="1" parent="1">
          <mxGeometry width="50" height="50" relative="1" as="geometry">
            <mxPoint x="210" y="319" as="sourcePoint" />
            <mxPoint x="210" y="344" as="targetPoint" />
          </mxGeometry>
        </mxCell>
        <mxCell id="svk5F5cs-5M3oYEvu1DR-63" value="Item UPC" style="text;html=1;align=center;verticalAlign=middle;whiteSpace=wrap;rounded=0;" vertex="1" parent="1">
          <mxGeometry x="137" y="313" width="60" height="30" as="geometry" />
        </mxCell>
        <mxCell id="svk5F5cs-5M3oYEvu1DR-64" value="" style="endArrow=classic;html=1;rounded=0;exitX=0.5;exitY=1;exitDx=0;exitDy=0;startArrow=oval;startFill=0;" edge="1" parent="1">
          <mxGeometry width="50" height="50" relative="1" as="geometry">
            <mxPoint x="210" y="476" as="sourcePoint" />
            <mxPoint x="210" y="501" as="targetPoint" />
          </mxGeometry>
        </mxCell>
        <mxCell id="svk5F5cs-5M3oYEvu1DR-65" value="Item UPC" style="text;html=1;align=center;verticalAlign=middle;whiteSpace=wrap;rounded=0;" vertex="1" parent="1">
          <mxGeometry x="137" y="470" width="60" height="30" as="geometry" />
        </mxCell>
        <mxCell id="svk5F5cs-5M3oYEvu1DR-67" value="" style="endArrow=classic;html=1;rounded=0;startArrow=oval;startFill=0;" edge="1" parent="1">
          <mxGeometry width="50" height="50" relative="1" as="geometry">
            <mxPoint x="252" y="493" as="sourcePoint" />
            <mxPoint x="252" y="473" as="targetPoint" />
          </mxGeometry>
        </mxCell>
        <mxCell id="svk5F5cs-5M3oYEvu1DR-68" value="Item Details" style="text;html=1;align=center;verticalAlign=middle;whiteSpace=wrap;rounded=0;" vertex="1" parent="1">
          <mxGeometry x="256" y="470" width="60" height="30" as="geometry" />
        </mxCell>
        <mxCell id="svk5F5cs-5M3oYEvu1DR-82" value="&lt;h1 style=&quot;margin-top: 0px;&quot;&gt;Lab 11.1 Structure Chart&lt;/h1&gt;" style="text;html=1;whiteSpace=wrap;overflow=hidden;rounded=0;" vertex="1" parent="1">
          <mxGeometry x="302.86" y="170" width="180" height="120" as="geometry" />
        </mxCell>
        <mxCell id="svk5F5cs-5M3oYEvu1DR-92" value="" style="curved=1;endArrow=classic;html=1;rounded=0;" edge="1" parent="1">
          <mxGeometry width="50" height="50" relative="1" as="geometry">
            <mxPoint x="245" y="299" as="sourcePoint" />
            <mxPoint x="245" y="289" as="targetPoint" />
            <Array as="points">
              <mxPoint x="245" y="314" />
              <mxPoint x="215" y="309" />
              <mxPoint x="221" y="284" />
            </Array>
          </mxGeometry>
        </mxCell>
        <mxCell id="svk5F5cs-5M3oYEvu1DR-97" value="" style="endArrow=none;html=1;rounded=0;exitX=0.182;exitY=0.992;exitDx=0;exitDy=0;exitPerimeter=0;strokeWidth=0.5;" edge="1" parent="1">
          <mxGeometry width="50" height="50" relative="1" as="geometry">
            <mxPoint x="188.00000000000003" y="619.36" as="sourcePoint" />
            <mxPoint x="188.16" y="550" as="targetPoint" />
          </mxGeometry>
        </mxCell>
        <mxCell id="svk5F5cs-5M3oYEvu1DR-98" value="" style="endArrow=none;html=1;rounded=0;exitX=0.182;exitY=0.992;exitDx=0;exitDy=0;exitPerimeter=0;strokeWidth=0.5;" edge="1" parent="1">
          <mxGeometry width="50" height="50" relative="1" as="geometry">
            <mxPoint x="281.95000000000005" y="620" as="sourcePoint" />
            <mxPoint x="282.11" y="550.64" as="targetPoint" />
          </mxGeometry>
        </mxCell>
        <mxCell id="svk5F5cs-5M3oYEvu1DR-5" value="" style="shape=cube;whiteSpace=wrap;html=1;boundedLbl=1;backgroundOutline=1;darkOpacity=0.05;darkOpacity2=0.1;size=10;" vertex="1" parent="1">
          <mxGeometry x="638.86" y="350" width="120" height="80" as="geometry" />
        </mxCell>
        <mxCell id="svk5F5cs-5M3oYEvu1DR-6" value="1.3 Process Payment" style="text;html=1;align=center;verticalAlign=middle;whiteSpace=wrap;rounded=0;" vertex="1" parent="1">
          <mxGeometry x="668.86" y="380" width="60" height="30" as="geometry" />
        </mxCell>
        <mxCell id="svk5F5cs-5M3oYEvu1DR-11" value="" style="shape=cube;whiteSpace=wrap;html=1;boundedLbl=1;backgroundOutline=1;darkOpacity=0.05;darkOpacity2=0.1;size=10;" vertex="1" parent="1">
          <mxGeometry x="588.86" y="540" width="120" height="80" as="geometry" />
        </mxCell>
        <mxCell id="svk5F5cs-5M3oYEvu1DR-12" value="1.3.1 Process CC Payment" style="text;html=1;align=center;verticalAlign=middle;whiteSpace=wrap;rounded=0;" vertex="1" parent="1">
          <mxGeometry x="618.86" y="570" width="60" height="30" as="geometry" />
        </mxCell>
        <mxCell id="svk5F5cs-5M3oYEvu1DR-13" value="" style="shape=cube;whiteSpace=wrap;html=1;boundedLbl=1;backgroundOutline=1;darkOpacity=0.05;darkOpacity2=0.1;size=10;" vertex="1" parent="1">
          <mxGeometry x="758.86" y="540" width="120" height="80" as="geometry" />
        </mxCell>
        <mxCell id="svk5F5cs-5M3oYEvu1DR-14" value="1.3.2 Process Debit Payment" style="text;html=1;align=center;verticalAlign=middle;whiteSpace=wrap;rounded=0;" vertex="1" parent="1">
          <mxGeometry x="788.86" y="570" width="60" height="30" as="geometry" />
        </mxCell>
        <mxCell id="svk5F5cs-5M3oYEvu1DR-22" value="" style="endArrow=classic;html=1;rounded=0;entryX=0;entryY=0;entryDx=55;entryDy=0;entryPerimeter=0;" edge="1" parent="1">
          <mxGeometry width="50" height="50" relative="1" as="geometry">
            <mxPoint x="698.53" y="300" as="sourcePoint" />
            <mxPoint x="698.53" y="350" as="targetPoint" />
          </mxGeometry>
        </mxCell>
        <mxCell id="svk5F5cs-5M3oYEvu1DR-31" value="" style="rhombus;whiteSpace=wrap;html=1;" vertex="1" parent="1">
          <mxGeometry x="691.72" y="430" width="17.14" height="20" as="geometry" />
        </mxCell>
        <mxCell id="svk5F5cs-5M3oYEvu1DR-32" value="" style="endArrow=none;html=1;rounded=0;" edge="1" parent="1">
          <mxGeometry width="50" height="50" relative="1" as="geometry">
            <mxPoint x="648.86" y="490" as="sourcePoint" />
            <mxPoint x="808.86" y="490" as="targetPoint" />
          </mxGeometry>
        </mxCell>
        <mxCell id="svk5F5cs-5M3oYEvu1DR-33" value="" style="endArrow=none;html=1;rounded=0;exitX=0.5;exitY=1;exitDx=0;exitDy=0;" edge="1" parent="1" source="svk5F5cs-5M3oYEvu1DR-31">
          <mxGeometry width="50" height="50" relative="1" as="geometry">
            <mxPoint x="738.86" y="460" as="sourcePoint" />
            <mxPoint x="699.86" y="490" as="targetPoint" />
          </mxGeometry>
        </mxCell>
        <mxCell id="svk5F5cs-5M3oYEvu1DR-35" value="" style="endArrow=classic;html=1;rounded=0;" edge="1" parent="1">
          <mxGeometry width="50" height="50" relative="1" as="geometry">
            <mxPoint x="648.86" y="490" as="sourcePoint" />
            <mxPoint x="648.86" y="541" as="targetPoint" />
          </mxGeometry>
        </mxCell>
        <mxCell id="svk5F5cs-5M3oYEvu1DR-36" value="" style="endArrow=classic;html=1;rounded=0;" edge="1" parent="1">
          <mxGeometry width="50" height="50" relative="1" as="geometry">
            <mxPoint x="808.86" y="489" as="sourcePoint" />
            <mxPoint x="808.86" y="540" as="targetPoint" />
          </mxGeometry>
        </mxCell>
        <mxCell id="svk5F5cs-5M3oYEvu1DR-48" value="" style="endArrow=classic;html=1;rounded=0;exitX=0.5;exitY=1;exitDx=0;exitDy=0;startArrow=oval;startFill=0;" edge="1" parent="1">
          <mxGeometry width="50" height="50" relative="1" as="geometry">
            <mxPoint x="681.36" y="318" as="sourcePoint" />
            <mxPoint x="681.36" y="343" as="targetPoint" />
          </mxGeometry>
        </mxCell>
        <mxCell id="svk5F5cs-5M3oYEvu1DR-50" value="Transaction&lt;div&gt;Details&lt;/div&gt;" style="text;html=1;align=center;verticalAlign=middle;whiteSpace=wrap;rounded=0;" vertex="1" parent="1">
          <mxGeometry x="611.36" y="310" width="60" height="30" as="geometry" />
        </mxCell>
        <mxCell id="svk5F5cs-5M3oYEvu1DR-51" value="" style="endArrow=classic;html=1;rounded=0;exitX=0.5;exitY=1;exitDx=0;exitDy=0;startArrow=oval;startFill=0;" edge="1" parent="1">
          <mxGeometry width="50" height="50" relative="1" as="geometry">
            <mxPoint x="593.86" y="319" as="sourcePoint" />
            <mxPoint x="593.86" y="344" as="targetPoint" />
          </mxGeometry>
        </mxCell>
        <mxCell id="svk5F5cs-5M3oYEvu1DR-53" value="Payment" style="text;html=1;align=center;verticalAlign=middle;whiteSpace=wrap;rounded=0;" vertex="1" parent="1">
          <mxGeometry x="528.86" y="310" width="60" height="30" as="geometry" />
        </mxCell>
        <mxCell id="svk5F5cs-5M3oYEvu1DR-54" value="" style="endArrow=classic;html=1;rounded=0;startArrow=oval;startFill=0;" edge="1" parent="1">
          <mxGeometry width="50" height="50" relative="1" as="geometry">
            <mxPoint x="720.86" y="336" as="sourcePoint" />
            <mxPoint x="720.86" y="316" as="targetPoint" />
          </mxGeometry>
        </mxCell>
        <mxCell id="svk5F5cs-5M3oYEvu1DR-56" value="Receipt" style="text;html=1;align=center;verticalAlign=middle;whiteSpace=wrap;rounded=0;" vertex="1" parent="1">
          <mxGeometry x="724.86" y="313" width="60" height="30" as="geometry" />
        </mxCell>
        <mxCell id="svk5F5cs-5M3oYEvu1DR-69" value="" style="endArrow=classic;html=1;rounded=0;exitX=0.5;exitY=1;exitDx=0;exitDy=0;startArrow=oval;startFill=0;" edge="1" parent="1">
          <mxGeometry width="50" height="50" relative="1" as="geometry">
            <mxPoint x="547.86" y="506" as="sourcePoint" />
            <mxPoint x="547.86" y="531" as="targetPoint" />
          </mxGeometry>
        </mxCell>
        <mxCell id="svk5F5cs-5M3oYEvu1DR-70" value="Payment" style="text;html=1;align=center;verticalAlign=middle;whiteSpace=wrap;rounded=0;" vertex="1" parent="1">
          <mxGeometry x="482.86" y="497" width="60" height="30" as="geometry" />
        </mxCell>
        <mxCell id="svk5F5cs-5M3oYEvu1DR-71" value="" style="endArrow=classic;html=1;rounded=0;exitX=0.5;exitY=1;exitDx=0;exitDy=0;startArrow=oval;startFill=0;" edge="1" parent="1">
          <mxGeometry width="50" height="50" relative="1" as="geometry">
            <mxPoint x="631.86" y="506.5" as="sourcePoint" />
            <mxPoint x="631.86" y="531.5" as="targetPoint" />
          </mxGeometry>
        </mxCell>
        <mxCell id="svk5F5cs-5M3oYEvu1DR-72" value="Transaction&lt;div&gt;Details&lt;/div&gt;" style="text;html=1;align=center;verticalAlign=middle;whiteSpace=wrap;rounded=0;" vertex="1" parent="1">
          <mxGeometry x="561.86" y="498.5" width="60" height="30" as="geometry" />
        </mxCell>
        <mxCell id="svk5F5cs-5M3oYEvu1DR-73" value="" style="endArrow=classic;html=1;rounded=0;startArrow=oval;startFill=1;" edge="1" parent="1">
          <mxGeometry width="50" height="50" relative="1" as="geometry">
            <mxPoint x="663.86" y="525.5" as="sourcePoint" />
            <mxPoint x="663.86" y="505.5" as="targetPoint" />
          </mxGeometry>
        </mxCell>
        <mxCell id="svk5F5cs-5M3oYEvu1DR-74" value="CCCH Response" style="text;html=1;align=center;verticalAlign=middle;whiteSpace=wrap;rounded=0;" vertex="1" parent="1">
          <mxGeometry x="670.86" y="502.5" width="60" height="30" as="geometry" />
        </mxCell>
        <mxCell id="svk5F5cs-5M3oYEvu1DR-75" value="" style="endArrow=classic;html=1;rounded=0;exitX=0.5;exitY=1;exitDx=0;exitDy=0;startArrow=oval;startFill=0;" edge="1" parent="1">
          <mxGeometry width="50" height="50" relative="1" as="geometry">
            <mxPoint x="795.86" y="507.5" as="sourcePoint" />
            <mxPoint x="795.86" y="532.5" as="targetPoint" />
          </mxGeometry>
        </mxCell>
        <mxCell id="svk5F5cs-5M3oYEvu1DR-76" value="Payment" style="text;html=1;align=center;verticalAlign=middle;whiteSpace=wrap;rounded=0;" vertex="1" parent="1">
          <mxGeometry x="730.86" y="498.5" width="60" height="30" as="geometry" />
        </mxCell>
        <mxCell id="svk5F5cs-5M3oYEvu1DR-77" value="" style="endArrow=classic;html=1;rounded=0;exitX=0.5;exitY=1;exitDx=0;exitDy=0;startArrow=oval;startFill=0;" edge="1" parent="1">
          <mxGeometry width="50" height="50" relative="1" as="geometry">
            <mxPoint x="821.41" y="507.5" as="sourcePoint" />
            <mxPoint x="821.41" y="532.5" as="targetPoint" />
          </mxGeometry>
        </mxCell>
        <mxCell id="svk5F5cs-5M3oYEvu1DR-78" value="Transaction&lt;div&gt;Details&lt;/div&gt;" style="text;html=1;align=center;verticalAlign=middle;whiteSpace=wrap;rounded=0;" vertex="1" parent="1">
          <mxGeometry x="828.86" y="502.5" width="60" height="30" as="geometry" />
        </mxCell>
        <mxCell id="svk5F5cs-5M3oYEvu1DR-80" value="" style="endArrow=classic;html=1;rounded=0;startArrow=oval;startFill=1;" edge="1" parent="1">
          <mxGeometry width="50" height="50" relative="1" as="geometry">
            <mxPoint x="898.86" y="525.5" as="sourcePoint" />
            <mxPoint x="898.86" y="505.5" as="targetPoint" />
          </mxGeometry>
        </mxCell>
        <mxCell id="svk5F5cs-5M3oYEvu1DR-81" value="ACH Response" style="text;html=1;align=center;verticalAlign=middle;whiteSpace=wrap;rounded=0;" vertex="1" parent="1">
          <mxGeometry x="905.86" y="502.5" width="60" height="30" as="geometry" />
        </mxCell>
        <mxCell id="svk5F5cs-5M3oYEvu1DR-100" value="" style="shape=flexArrow;endArrow=classic;html=1;rounded=0;fillColor=#dae8fc;strokeColor=#6c8ebf;" edge="1" parent="1">
          <mxGeometry width="50" height="50" relative="1" as="geometry">
            <mxPoint x="668.86" y="209.55" as="sourcePoint" />
            <mxPoint x="733" y="209.55" as="targetPoint" />
          </mxGeometry>
        </mxCell>
        <mxCell id="svk5F5cs-5M3oYEvu1DR-101" value="Control Module" style="text;html=1;align=center;verticalAlign=middle;whiteSpace=wrap;rounded=0;fillColor=#f5f5f5;fontColor=#333333;strokeColor=#666666;" vertex="1" parent="1">
          <mxGeometry x="740" y="192.5" width="70" height="35" as="geometry" />
        </mxCell>
        <mxCell id="svk5F5cs-5M3oYEvu1DR-102" value="" style="shape=flexArrow;endArrow=classic;html=1;rounded=0;fillColor=#dae8fc;strokeColor=#6c8ebf;" edge="1" parent="1">
          <mxGeometry width="50" height="50" relative="1" as="geometry">
            <mxPoint x="302.86" y="579.55" as="sourcePoint" />
            <mxPoint x="367" y="579.55" as="targetPoint" />
          </mxGeometry>
        </mxCell>
        <mxCell id="svk5F5cs-5M3oYEvu1DR-103" value="Library Module" style="text;html=1;align=center;verticalAlign=middle;whiteSpace=wrap;rounded=0;fillColor=#f5f5f5;fontColor=#333333;strokeColor=#666666;" vertex="1" parent="1">
          <mxGeometry x="374" y="560" width="66" height="35" as="geometry" />
        </mxCell>
        <mxCell id="svk5F5cs-5M3oYEvu1DR-104" value="Subordinate Module" style="text;html=1;align=center;verticalAlign=middle;whiteSpace=wrap;rounded=0;fillColor=#f5f5f5;fontColor=#333333;strokeColor=#666666;" vertex="1" parent="1">
          <mxGeometry x="1060" y="420" width="80" height="40" as="geometry" />
        </mxCell>
        <mxCell id="svk5F5cs-5M3oYEvu1DR-105" value="" style="shape=flexArrow;endArrow=classic;html=1;rounded=0;fillColor=#dae8fc;strokeColor=#6c8ebf;" edge="1" parent="1">
          <mxGeometry width="50" height="50" relative="1" as="geometry">
            <mxPoint x="980" y="439.67999999999995" as="sourcePoint" />
            <mxPoint x="1044.14" y="439.67999999999995" as="targetPoint" />
          </mxGeometry>
        </mxCell>
        <mxCell id="svk5F5cs-5M3oYEvu1DR-106" value="A loop" style="text;html=1;align=center;verticalAlign=middle;whiteSpace=wrap;rounded=0;fillColor=#dae8fc;strokeColor=#6c8ebf;" vertex="1" parent="1">
          <mxGeometry x="210" y="250" width="40" height="20" as="geometry" />
        </mxCell>
      </root>
    </mxGraphModel>
  </diagram>
</mxfile>
